<?xml version="1.0" encoding="utf-8"?>
<!-- Generator: Adobe Illustrator 23.0.1, SVG Export Plug-In . SVG Version: 6.00 Build 0)  -->
<svg version="1.1" id="logo" xmlns="http://www.w3.org/2000/svg" xmlns:xlink="http://www.w3.org/1999/xlink" x="0px" y="0px"
	 viewBox="0 0 113.77 151.78" style="enable-background:new 0 0 113.77 151.78;" xml:space="preserve">
<path id="logo_1_" d="M113.77,46c0-11.58-4.11-24.55-16.91-35.52C85.55,0.79,66.72-3.14,50,3.91V0L21.55,9.11V64.7
	c0,0-12.66,4.67-21.55,10.27c2.15,3.7,12.74,21.77,12.74,21.77c14.59-9.06,48.81-20.85,70.41-0.91c6.35,9.46,2.66,23.13-9.47,27.29
	c-10.81,3.11-21.91-2.67-23.68-16V92.34l-28.45,9.7v40.19L50,151.78v-4.12c7.48,3.43,25.85,7.59,43.19-3.77
	c14.58-9.55,20.51-26.44,20.51-35.91c0-21.25-9.1-29.3-10.96-32.2C102.75,75.78,113.77,64.62,113.77,46z M80.53,60
	c-12.29-4.54-26.62-3.07-27.06-3.02C51.3,53.99,50,50.32,50,46.35c0-10,8.11-18.11,18.11-18.11s18.11,8.11,18.11,18.11
	C86.23,51.73,83.85,55.9,80.53,60z"/>
</svg>
