<?xml version="1.0" encoding="utf-8"?>
<!-- Generator: Adobe Illustrator 23.0.1, SVG Export Plug-In . SVG Version: 6.00 Build 0)  -->
<svg version="1.1" id="Calque_1" xmlns="http://www.w3.org/2000/svg" xmlns:xlink="http://www.w3.org/1999/xlink" x="0px" y="0px" viewBox="0 0 800 800" style="enable-background:new 0 0 800 800;" xml:space="preserve">
	<g>
		<path d="M293.21,275.64c0-31.68-0.7-63.39,0.15-95.05c1.54-57.18,43.75-102.01,100.59-108.05c54.2-5.75,105.48,31.48,118.47,86.29
			c1.52,6.43,2.37,13.18,2.38,19.78c0.18,65.03,0.86,130.08-0.14,195.1c-0.73,47.34-32.93,88.1-77.54,101.76
			c-45.05,13.79-93.7-1.93-121.99-39.68c-13.31-17.77-21.44-37.7-21.68-60.1c-0.36-33.35-0.09-66.7-0.09-100.05
			C293.32,275.64,293.27,275.64,293.21,275.64z M307.49,276.12c0,30.01-0.23,60.03,0.05,90.04c0.52,56.42,43.09,99.86,97.17,99.51
			c53.45-0.35,95.53-43.38,95.94-99.07c0.44-60.03,0.41-120.06,0.01-180.09c-0.38-56.97-42.42-99.49-97.18-99.12
			c-54.13,0.37-95.35,42.61-95.93,98.68C307.24,216.09,307.5,246.11,307.49,276.12z"/>
		<path d="M299.95,510.41c5.42,0.38,8.33,4.83,11.79,8.28c27.2,27.09,54.67,53.91,81.25,81.59c8.38,8.73,13.06,9.8,22.02,0.36
			c26.82-28.21,54.74-55.39,82.41-82.78c3.94-3.9,8.1-11.64,14.88-5.22c6.57,6.21,0.02,10.87-4.16,15.08
			c-31.41,31.52-63.01,62.86-94.23,94.57c-6.93,7.03-12.07,7.65-19.29,0.31c-31.6-32.11-63.6-63.84-95.44-95.72
			c-3.13-3.14-6.81-6.13-5.38-11.35C294.58,512.65,296.77,511.02,299.95,510.41z"/>
		<path d="M402.79,732.65c-2.44-1.91-5.71-3.97-8.37-6.62c-31.51-31.39-62.96-62.85-94.35-94.36c-4.18-4.19-10.75-8.94-4.15-15.08
			c6.64-6.17,10.96,1.24,14.98,5.23c27.64,27.4,55.58,54.53,82.39,82.72c9.03,9.5,13.72,8.21,22.05-0.46
			c26.57-27.66,53.98-54.53,81.26-81.5c4.31-4.27,9.13-12.98,16.1-5.56c6.6,7.03-1.79,11.86-6.15,16.25
			c-30.15,30.39-60.46,60.63-90.8,90.84C412.29,727.54,409.42,732.01,402.79,732.65z"/>
		<path d="M426.37,164.46c0.32,11.93-9.69,22.31-21.79,22.58c-12.07,0.27-22.52-9.64-22.78-21.6c-0.26-11.79,9.99-22.5,21.8-22.8
			C415.39,142.35,426.05,152.57,426.37,164.46z"/>
	</g>
</svg>
